<svg width="32" height="77" viewBox="0 0 32 77" fill="none" xmlns="http://www.w3.org/2000/svg">
<path fill-rule="evenodd" clip-rule="evenodd" d="M42.8394 29.7397C45.1121 19.1158 47.3144 8.821 58.2393 3.13715C61.2547 1.56829 65.3636 1.06378 65.9061 5.35484C66.373 9.04702 64.1206 12.629 62.2305 15.6349L62.041 15.9364C59.867 19.3996 56.9355 22.4676 53.9908 25.5493C51.3991 28.2616 48.7972 30.9846 46.6927 33.997C47.5965 33.7112 48.4975 33.4198 49.396 33.1291C59.7329 29.7854 69.7496 26.5453 80.1344 33.1646C83.0008 34.9916 85.4922 38.2977 82.0473 40.9131C79.0832 43.1635 74.8548 43.0039 71.3066 42.8699C71.1872 42.8654 71.0686 42.861 70.9508 42.8566C66.8646 42.7055 62.7418 41.7007 58.6006 40.6913C54.1373 39.6035 49.6526 38.5105 45.169 38.4754C46.5771 39.8191 48.0232 41.1246 49.4613 42.4229L49.4615 42.4231C57.5257 49.7033 65.3401 56.758 64.8 69.0611C64.651 72.457 63.0335 76.2676 59.046 74.592C55.6151 73.1502 53.6392 69.4085 51.981 66.2687L51.8147 65.9539C49.9024 62.3395 48.7113 58.2667 47.5148 54.1757L47.5148 54.1757C46.3724 50.2699 45.2252 46.3474 43.441 42.7914C43.1808 43.9496 42.9327 45.1094 42.6854 46.2652C40.4126 56.8891 38.2103 67.1839 27.2855 72.8678C24.27 74.4366 20.1612 74.9411 19.6186 70.6501C19.1518 66.9579 21.4042 63.3759 23.2943 60.37L23.4837 60.0685C25.6577 56.6053 28.5893 53.5373 31.534 50.4556L31.534 50.4556C34.4216 47.4336 37.3218 44.3985 39.5326 40.9645C38.4597 41.3006 37.3909 41.6463 36.3254 41.991C25.9885 45.3347 15.9718 48.5748 5.58702 41.9555C2.72063 40.1285 0.229268 36.8224 3.67416 34.207C6.63827 31.9566 10.8666 32.1162 14.4148 32.2502L14.7706 32.2635C18.8569 32.4146 22.9796 33.4194 27.1208 34.4287C30.837 35.3345 34.5681 36.2438 38.301 36.5432C37.6228 35.9233 36.9416 35.3083 36.2621 34.6948L36.2614 34.6942L36.2607 34.6936L36.26 34.6929L36.2599 34.6928C28.1957 27.4126 20.3813 20.3579 20.9213 8.05486C21.0704 4.65897 22.6879 0.848322 26.6754 2.52399C30.1063 3.9658 32.0822 7.70742 33.7403 10.8472L33.9067 11.1621C35.8189 14.7764 37.0101 18.8492 38.2066 22.9402L38.2066 22.9402C39.2822 26.6179 40.3622 30.3104 41.9741 33.6978C42.2748 32.3788 42.5576 31.0567 42.8394 29.7397Z" fill="#F0B2FF"/>
<path d="M58.2393 3.13715L57.5469 1.80647V1.80647L58.2393 3.13715ZM42.8394 29.7397L41.3725 29.4259L42.8394 29.7397ZM65.9061 5.35484L67.3943 5.16668V5.16668L65.9061 5.35484ZM62.2305 15.6349L60.9606 14.8365L60.9604 14.8368L62.2305 15.6349ZM62.041 15.9364L60.771 15.1382L60.7706 15.1389L62.041 15.9364ZM53.9908 25.5493L52.9063 24.513L53.9908 25.5493ZM46.6927 33.997L45.463 33.1379L42.9334 36.759L47.1449 35.4272L46.6927 33.997ZM49.396 33.1291L48.9343 31.7019L49.396 33.1291ZM80.1344 33.1646L79.3282 34.4295L80.1344 33.1646ZM82.0473 40.9131L81.1402 39.7184L82.0473 40.9131ZM71.3066 42.8699L71.25 44.3689H71.25L71.3066 42.8699ZM70.9508 42.8566L71.0062 41.3576L70.9508 42.8566ZM58.6006 40.6913L58.2455 42.1487L58.6006 40.6913ZM45.169 38.4754L45.1807 36.9754L41.3934 36.9457L44.1334 39.5605L45.169 38.4754ZM49.4613 42.4229L48.4561 43.5363L48.4611 43.5408L49.4613 42.4229ZM49.4615 42.4231L50.4667 41.3097L50.4617 41.3053L49.4615 42.4231ZM64.8 69.0611L66.2986 69.1269L64.8 69.0611ZM59.046 74.592L58.4649 75.9748L59.046 74.592ZM51.981 66.2687L53.3074 65.5682L53.3073 65.5679L51.981 66.2687ZM51.8147 65.9539L53.1409 65.2531L53.1406 65.2524L51.8147 65.9539ZM47.5148 54.1757L48.9545 53.7546L48.9466 53.7278L48.9378 53.7014L47.5148 54.1757ZM47.5148 54.1757L46.0751 54.5967L46.0829 54.6235L46.0917 54.65L47.5148 54.1757ZM43.441 42.7914L44.7817 42.1187L42.8983 38.3651L41.9775 42.4626L43.441 42.7914ZM42.6854 46.2652L44.1522 46.579V46.579L42.6854 46.2652ZM27.2855 72.8678L27.9778 74.1985H27.9778L27.2855 72.8678ZM19.6186 70.6501L21.1068 70.4619L19.6186 70.6501ZM23.2943 60.37L24.5641 61.1685L24.5643 61.1682L23.2943 60.37ZM23.4837 60.0685L24.7537 60.8667L24.7542 60.866L23.4837 60.0685ZM31.534 50.4556L32.6185 51.4919L32.6537 51.455L32.6863 51.4159L31.534 50.4556ZM31.534 50.4556L30.4495 49.4193L30.4143 49.4561L30.3817 49.4953L31.534 50.4556ZM39.5326 40.9645L40.7938 41.7765L43.035 38.2953L39.0842 39.5331L39.5326 40.9645ZM36.3254 41.991L36.7871 43.4182L36.3254 41.991ZM5.58702 41.9555L4.78078 43.2204L4.78078 43.2204L5.58702 41.9555ZM3.67416 34.207L4.58119 35.4017H4.58119L3.67416 34.207ZM14.4148 32.2502L14.3582 33.7491L14.3586 33.7491L14.4148 32.2502ZM14.7706 32.2635L14.7144 33.7624L14.7152 33.7625L14.7706 32.2635ZM27.1208 34.4287L27.476 32.9714H27.476L27.1208 34.4287ZM38.301 36.5432L38.1811 38.0384L42.5425 38.3881L39.313 35.436L38.301 36.5432ZM36.2621 34.6948L35.2567 35.808L35.2569 35.8082L36.2621 34.6948ZM36.26 34.6929L37.2654 33.5797L37.2565 33.5718L36.26 34.6929ZM36.2599 34.6928L35.2547 35.8063L35.2633 35.8139L36.2599 34.6928ZM20.9213 8.05486L19.4228 7.98908V7.98908L20.9213 8.05486ZM26.6754 2.52399L26.0942 3.90685V3.90685L26.6754 2.52399ZM33.7403 10.8472L32.4139 11.5477L32.4141 11.548L33.7403 10.8472ZM33.9067 11.1621L32.5805 11.8629L32.5808 11.8635L33.9067 11.1621ZM38.2066 22.9402L39.6489 22.5281L39.6463 22.5191L38.2066 22.9402ZM38.2066 22.9402L36.7643 23.3523L36.7669 23.3613L38.2066 22.9402ZM41.9741 33.6978L40.6197 34.3423L42.4763 38.2439L43.4366 34.0311L41.9741 33.6978ZM57.5469 1.80647C45.9124 7.85959 43.6237 18.903 41.3725 29.4259L44.3062 30.0535C46.6005 19.3285 48.7165 9.7824 58.9316 4.46782L57.5469 1.80647ZM67.3943 5.16668C67.2285 3.8558 66.7684 2.75705 65.9872 1.94046C65.2028 1.12064 64.2133 0.709244 63.216 0.564151C61.2977 0.285078 59.1819 0.955852 57.5469 1.80647L58.9316 4.46782C60.3121 3.74959 61.7584 3.38368 62.7841 3.5329C63.2587 3.60195 63.5866 3.77094 63.8195 4.01437C64.0555 4.26101 64.3124 4.70834 64.418 5.543L67.3943 5.16668ZM63.5003 16.4334C64.4346 14.9476 65.5361 13.2016 66.3313 11.342C67.1302 9.47394 67.6734 7.37464 67.3943 5.16668L64.418 5.54299C64.6056 7.02722 64.2561 8.56502 63.573 10.1624C62.8862 11.7684 61.9165 13.3164 60.9606 14.8365L63.5003 16.4334ZM63.311 16.7345L63.5005 16.4331L60.9604 14.8368L60.771 15.1382L63.311 16.7345ZM55.0753 26.5856C57.9989 23.5259 61.0423 20.3487 63.3114 16.7339L60.7706 15.1389C58.6917 18.4506 55.872 21.4093 52.9063 24.513L55.0753 26.5856ZM47.9223 34.856C49.9497 31.954 52.4687 29.3134 55.0753 26.5856L52.9063 24.513C50.3294 27.2098 47.6447 30.0151 45.463 33.1379L47.9223 34.856ZM48.9343 31.7019C48.035 31.9928 47.1388 32.2827 46.2404 32.5668L47.1449 35.4272C48.0543 35.1397 48.9599 34.8467 49.8576 34.5563L48.9343 31.7019ZM80.9406 31.8997C69.8812 24.8504 59.1729 28.39 48.9343 31.7019L49.8576 34.5563C60.2929 31.1808 69.6181 28.2403 79.3282 34.4295L80.9406 31.8997ZM82.9543 42.1078C84.0067 41.3088 84.7282 40.361 85.0447 39.2761C85.3625 38.1869 85.2241 37.1243 84.851 36.188C84.1336 34.3872 82.4948 32.8903 80.9406 31.8997L79.3282 34.4295C80.6404 35.2659 81.6805 36.3355 82.0641 37.2984C82.2416 37.7439 82.2592 38.1124 82.1648 38.4358C82.0692 38.7635 81.8103 39.2097 81.1402 39.7184L82.9543 42.1078ZM71.25 44.3689C73.0039 44.4351 75.0667 44.516 77.0748 44.2749C79.0921 44.0327 81.1817 43.4535 82.9543 42.1078L81.1402 39.7184C79.9487 40.623 78.4421 41.0892 76.7172 41.2963C74.983 41.5045 73.1575 41.4387 71.3632 41.371L71.25 44.3689ZM70.8954 44.3556C71.0125 44.3599 71.1305 44.3644 71.25 44.3689L71.3632 41.371C71.2439 41.3665 71.1247 41.362 71.0062 41.3576L70.8954 44.3556ZM58.2455 42.1487C62.3571 43.1508 66.6303 44.1978 70.8954 44.3556L71.0062 41.3576C67.0988 41.2131 63.1266 40.2505 58.9558 39.234L58.2455 42.1487ZM45.1572 39.9753C49.4364 40.0088 53.7494 41.0529 58.2455 42.1487L58.9558 39.234C54.5253 38.1542 49.8688 37.0121 45.1807 36.9754L45.1572 39.9753ZM50.4665 41.3095C49.0257 40.0089 47.5951 38.7172 46.2046 37.3902L44.1334 39.5605C45.559 40.921 47.0206 42.2403 48.4561 43.5363L50.4665 41.3095ZM50.4617 41.3053L50.4615 41.3051L48.4611 43.5408L48.4613 43.541L50.4617 41.3053ZM66.2986 69.1269C66.8737 56.0245 58.4542 48.5207 50.4667 41.3097L48.4564 43.5365C56.5973 50.886 63.8064 57.4915 63.3015 68.9953L66.2986 69.1269ZM58.4649 75.9748C59.683 76.4867 60.8646 76.6376 61.9624 76.3694C63.0646 76.1 63.9156 75.4487 64.54 74.6576C65.7408 73.1358 66.2178 70.9681 66.2986 69.1269L63.3015 68.9953C63.2332 70.55 62.827 71.9855 62.1849 72.7992C61.8878 73.1757 61.5775 73.3751 61.2502 73.4551C60.9186 73.5362 60.4027 73.535 59.6272 73.2091L58.4649 75.9748ZM50.6546 66.9692C51.4742 68.5212 52.4355 70.3481 53.6484 71.9666C54.8667 73.5925 56.4132 75.1126 58.4649 75.9748L59.6272 73.2091C58.2479 72.6295 57.0909 71.5579 56.0491 70.1676C55.0017 68.7699 54.146 67.156 53.3074 65.5682L50.6546 66.9692ZM50.4885 66.6547L50.6548 66.9695L53.3073 65.5679L53.1409 65.2531L50.4885 66.6547ZM46.0751 54.5968C47.263 58.6586 48.4929 62.8829 50.4888 66.6554L53.1406 65.2524C51.312 61.7962 50.1595 57.8749 48.9545 53.7546L46.0751 54.5968ZM46.0917 54.65L46.0917 54.65L48.9378 53.7014L48.9378 53.7013L46.0917 54.65ZM42.1003 43.4641C43.8131 46.8778 44.9255 50.6662 46.0751 54.5967L48.9544 53.7546C47.8193 49.8735 46.6374 45.8171 44.7817 42.1187L42.1003 43.4641ZM44.1522 46.579C44.3997 45.4219 44.6462 44.2697 44.9045 43.1203L41.9775 42.4626C41.7153 43.6295 41.4656 44.7968 41.2186 45.9515L44.1522 46.579ZM27.9778 74.1985C39.6124 68.1453 41.9011 57.1019 44.1522 46.579L41.2186 45.9515C38.9242 56.6764 36.8082 66.2225 26.5932 71.5371L27.9778 74.1985ZM18.1305 70.8382C18.2962 72.1491 18.7563 73.2479 19.5375 74.0645C20.3219 74.8843 21.3114 75.2957 22.3088 75.4408C24.227 75.7198 26.3428 75.0491 27.9778 74.1985L26.5932 71.5371C25.2127 72.2553 23.7663 72.6212 22.7407 72.472C22.266 72.403 21.9381 72.234 21.7052 71.9906C21.4693 71.7439 21.2123 71.2966 21.1068 70.4619L18.1305 70.8382ZM22.0244 59.5715C21.0902 61.0574 19.9886 62.8033 19.1934 64.6629C18.3945 66.531 17.8513 68.6303 18.1305 70.8382L21.1068 70.4619C20.9191 68.9777 21.2686 67.4399 21.9518 65.8425C22.6385 64.2366 23.6083 62.6885 24.5641 61.1685L22.0244 59.5715ZM22.2137 59.2704L22.0242 59.5719L24.5643 61.1682L24.7537 60.8667L22.2137 59.2704ZM30.4495 49.4193C27.5258 52.479 24.4824 55.6563 22.2133 59.271L24.7542 60.866C26.833 57.5543 29.6527 54.5956 32.6185 51.4919L30.4495 49.4193ZM30.3817 49.4953L30.3816 49.4953L32.6863 51.4159L32.6863 51.4158L30.3817 49.4953ZM38.2714 40.1525C36.1516 43.445 33.3559 46.3776 30.4495 49.4193L32.6185 51.4918C35.4872 48.4896 38.4919 45.352 40.7938 41.7765L38.2714 40.1525ZM36.7871 43.4182C37.8536 43.0732 38.9158 42.7296 39.981 42.3959L39.0842 39.5331C38.0035 39.8716 36.9281 40.2195 35.8638 40.5638L36.7871 43.4182ZM4.78078 43.2204C15.8402 50.2697 26.5485 46.73 36.7871 43.4182L35.8638 40.5638C25.4285 43.9393 16.1033 46.8798 6.39327 40.6906L4.78078 43.2204ZM2.76714 33.0123C1.71476 33.8113 0.993251 34.7591 0.676693 35.844C0.358886 36.9331 0.497374 37.9958 0.87038 38.9321C1.58782 40.7329 3.22665 42.2298 4.78078 43.2204L6.39327 40.6906C5.08101 39.8542 4.04096 38.7846 3.65734 37.8217C3.47982 37.3761 3.46223 37.0077 3.5566 36.6843C3.65221 36.3566 3.91112 35.9104 4.58119 35.4017L2.76714 33.0123ZM14.4714 30.7512C12.7175 30.685 10.6547 30.6041 8.64662 30.8451C6.62936 31.0873 4.5397 31.6665 2.76714 33.0123L4.58119 35.4017C5.77273 34.497 7.27927 34.0309 9.00424 33.8238C10.7384 33.6155 12.5639 33.6814 14.3582 33.7491L14.4714 30.7512ZM14.8268 30.7645L14.471 30.7512L14.3586 33.7491L14.7144 33.7624L14.8268 30.7645ZM27.476 32.9714C23.3644 31.9693 19.0911 30.9223 14.8261 30.7645L14.7152 33.7625C18.6226 33.907 22.5948 34.8696 26.7656 35.8861L27.476 32.9714ZM38.4208 35.048C34.8277 34.7598 31.2139 33.8824 27.476 32.9714L26.7656 35.8861C30.46 36.7865 34.3084 37.7278 38.1811 38.0384L38.4208 35.048ZM35.2569 35.8082C35.937 36.4222 36.6148 37.0341 37.2889 37.6503L39.313 35.436C38.6308 34.8125 37.9461 34.1943 37.2673 33.5814L35.2569 35.8082ZM35.256 35.8074L35.2567 35.808L37.2675 33.5817L37.2668 33.581L35.256 35.8074ZM35.2552 35.8067L35.256 35.8074L37.2668 33.581L37.2661 33.5804L35.2552 35.8067ZM35.2545 35.8061L35.2552 35.8067L37.2661 33.5804L37.2654 33.5798L35.2545 35.8061ZM35.2633 35.8139L35.2634 35.814L37.2565 33.5718L37.2564 33.5717L35.2633 35.8139ZM19.4228 7.98908C18.8477 21.0915 27.2672 28.5953 35.2547 35.8062L37.265 33.5794C29.1241 26.23 21.9149 19.6244 22.4199 8.12064L19.4228 7.98908ZM27.2565 1.14114C26.0384 0.629236 24.8568 0.478305 23.7589 0.746604C22.6568 1.01596 21.8057 1.66723 21.1814 2.45839C19.9806 3.9801 19.5036 6.14786 19.4228 7.98908L22.4199 8.12064C22.4881 6.56597 22.8944 5.13046 23.5365 4.3168C23.8336 3.94027 24.1439 3.74082 24.4712 3.66084C24.8027 3.5798 25.3186 3.58091 26.0942 3.90685L27.2565 1.14114ZM35.0667 10.1468C34.2471 8.59475 33.2859 6.76785 32.073 5.14935C30.8546 3.52345 29.3082 2.00335 27.2565 1.14114L26.0942 3.90685C27.4734 4.48644 28.6304 5.55805 29.6723 6.94837C30.7197 8.34609 31.5754 9.9599 32.4139 11.5477L35.0667 10.1468ZM35.2329 10.4613L35.0666 10.1464L32.4141 11.548L32.5805 11.8629L35.2329 10.4613ZM39.6463 22.5191C38.4583 18.4574 37.2285 14.2331 35.2326 10.4606L32.5808 11.8635C34.4094 15.3197 35.5619 19.241 36.7669 23.3613L39.6463 22.5191ZM39.6489 22.5282L39.6489 22.5281L36.7643 23.3523L36.7643 23.3523L39.6489 22.5282ZM43.3286 33.0532C41.7771 29.7929 40.7282 26.2185 39.6463 22.5192L36.7669 23.3613C37.8362 27.0174 38.9472 30.8279 40.6197 34.3423L43.3286 33.0532ZM41.3725 29.4259C41.0905 30.7445 40.8097 32.0568 40.5116 33.3644L43.4366 34.0311C43.7399 32.7007 44.0248 31.3689 44.3062 30.0535L41.3725 29.4259Z" fill="#F0B2FF"/>
</svg>
