<svg width="37" height="77" viewBox="0 0 37 77" fill="none" xmlns="http://www.w3.org/2000/svg">
<path fill-rule="evenodd" clip-rule="evenodd" d="M-6.16064 29.7397C-3.8879 19.1158 -1.68556 8.821 9.23925 3.13715C12.2547 1.56829 16.3636 1.06378 16.9061 5.35484C17.373 9.04702 15.1206 12.629 13.2305 15.6349L13.041 15.9364C10.867 19.3996 7.93546 22.4676 4.99076 25.5493C2.39907 28.2616 -0.202801 30.9846 -2.30731 33.997C-1.40349 33.7112 -0.502541 33.4198 0.395988 33.1291C10.7329 29.7854 20.7496 26.5453 31.1344 33.1646C34.0008 34.9916 36.4922 38.2977 33.0473 40.9131C30.0832 43.1635 25.8548 43.0039 22.3066 42.8699C22.1872 42.8654 22.0686 42.861 21.9508 42.8566C17.8646 42.7055 13.7418 41.7007 9.60064 40.6913C5.13735 39.6035 0.652603 38.5105 -3.83101 38.4754C-2.42294 39.8191 -0.976849 41.1246 0.461296 42.4229L0.461514 42.4231C8.52571 49.7033 16.3401 56.758 15.8 69.0611C15.651 72.457 14.0335 76.2676 10.046 74.592C6.61509 73.1502 4.63915 69.4085 2.98104 66.2687L2.81469 65.9539C0.902447 62.3395 -0.288723 58.2667 -1.48523 54.1757L-1.48524 54.1757C-2.62757 50.2699 -3.77477 46.3474 -5.55898 42.7914C-5.81924 43.9496 -6.06735 45.1094 -6.31462 46.2652C-8.58737 56.8891 -10.7897 67.1839 -21.7145 72.8678C-24.73 74.4366 -28.8388 74.9411 -29.3814 70.6501C-29.8482 66.9579 -27.5958 63.3759 -25.7057 60.37L-25.5163 60.0685C-23.3423 56.6053 -20.4107 53.5373 -17.466 50.4556L-17.466 50.4556C-14.5784 47.4336 -11.6782 44.3985 -9.46739 40.9645C-10.5403 41.3006 -11.6091 41.6463 -12.6746 41.991C-23.0115 45.3347 -33.0282 48.5748 -43.413 41.9555C-46.2794 40.1285 -48.7707 36.8224 -45.3258 34.207C-42.3617 31.9566 -38.1334 32.1162 -34.5852 32.2502L-34.2294 32.2635C-30.1431 32.4146 -26.0204 33.4194 -21.8792 34.4287C-18.163 35.3345 -14.4319 36.2438 -10.699 36.5432C-11.3772 35.9233 -12.0584 35.3083 -12.7379 34.6948L-12.7386 34.6942L-12.7393 34.6936L-12.74 34.6929L-12.7401 34.6928C-20.8043 27.4126 -28.6187 20.3579 -28.0787 8.05486C-27.9296 4.65897 -26.3121 0.848322 -22.3246 2.52399C-18.8937 3.9658 -16.9178 7.70742 -15.2597 10.8472L-15.0933 11.1621C-13.1811 14.7764 -11.9899 18.8492 -10.7934 22.9402L-10.7934 22.9402C-9.71777 26.6179 -8.63784 30.3104 -7.02588 33.6978C-6.72522 32.3788 -6.44239 31.0567 -6.16064 29.7397Z" fill="#F0B2FF"/>
<path d="M9.23925 3.13715L8.54694 1.80647V1.80647L9.23925 3.13715ZM-6.16064 29.7397L-7.62746 29.4259L-6.16064 29.7397ZM16.9061 5.35484L18.3943 5.16668V5.16668L16.9061 5.35484ZM13.2305 15.6349L11.9606 14.8365L11.9604 14.8368L13.2305 15.6349ZM13.041 15.9364L11.771 15.1382L11.7706 15.1389L13.041 15.9364ZM4.99076 25.5493L3.90627 24.513L4.99076 25.5493ZM-2.30731 33.997L-3.53696 33.1379L-6.06665 36.759L-1.85505 35.4272L-2.30731 33.997ZM0.395988 33.1291L-0.0656662 31.7019L0.395988 33.1291ZM31.1344 33.1646L30.3282 34.4295L31.1344 33.1646ZM33.0473 40.9131L32.1402 39.7184L33.0473 40.9131ZM22.3066 42.8699L22.25 44.3689H22.25L22.3066 42.8699ZM21.9508 42.8566L22.0062 41.3576L21.9508 42.8566ZM9.60064 40.6913L9.24545 42.1487L9.60064 40.6913ZM-3.83101 38.4754L-3.81926 36.9754L-7.60656 36.9457L-4.86659 39.5605L-3.83101 38.4754ZM0.461296 42.4229L-0.543873 43.5363L-0.538895 43.5408L0.461296 42.4229ZM0.461514 42.4231L1.46668 41.3097L1.4617 41.3053L0.461514 42.4231ZM15.8 69.0611L17.2986 69.1269L15.8 69.0611ZM10.046 74.592L9.4649 75.9748L10.046 74.592ZM2.98104 66.2687L4.30745 65.5682L4.30727 65.5679L2.98104 66.2687ZM2.81469 65.9539L4.14092 65.2531L4.14056 65.2524L2.81469 65.9539ZM-1.48523 54.1757L-0.0455399 53.7546L-0.0533752 53.7278L-0.0622063 53.7014L-1.48523 54.1757ZM-1.48524 54.1757L-2.92493 54.5967L-2.9171 54.6235L-2.90826 54.65L-1.48524 54.1757ZM-5.55898 42.7914L-4.21827 42.1187L-6.10167 38.3651L-7.02248 42.4626L-5.55898 42.7914ZM-6.31462 46.2652L-4.84781 46.579V46.579L-6.31462 46.2652ZM-21.7145 72.8678L-21.0222 74.1985H-21.0222L-21.7145 72.8678ZM-29.3814 70.6501L-27.8932 70.4619L-29.3814 70.6501ZM-25.7057 60.37L-24.4359 61.1685L-24.4357 61.1682L-25.7057 60.37ZM-25.5163 60.0685L-24.2463 60.8667L-24.2458 60.866L-25.5163 60.0685ZM-17.466 50.4556L-16.3815 51.4919L-16.3463 51.455L-16.3137 51.4159L-17.466 50.4556ZM-17.466 50.4556L-18.5505 49.4193L-18.5857 49.4561L-18.6183 49.4953L-17.466 50.4556ZM-9.46739 40.9645L-8.20617 41.7765L-5.96496 38.2953L-9.91582 39.5331L-9.46739 40.9645ZM-12.6746 41.991L-12.2129 43.4182L-12.6746 41.991ZM-43.413 41.9555L-44.2192 43.2204L-44.2192 43.2204L-43.413 41.9555ZM-45.3258 34.207L-44.4188 35.4017H-44.4188L-45.3258 34.207ZM-34.5852 32.2502L-34.6418 33.7491L-34.6414 33.7491L-34.5852 32.2502ZM-34.2294 32.2635L-34.2856 33.7624L-34.2848 33.7625L-34.2294 32.2635ZM-21.8792 34.4287L-21.524 32.9714H-21.524L-21.8792 34.4287ZM-10.699 36.5432L-10.8189 38.0384L-6.45752 38.3881L-9.68701 35.436L-10.699 36.5432ZM-12.7379 34.6948L-13.7433 35.808L-13.7431 35.8082L-12.7379 34.6948ZM-12.74 34.6929L-11.7346 33.5797L-11.7435 33.5718L-12.74 34.6929ZM-12.7401 34.6928L-13.7453 35.8063L-13.7367 35.8139L-12.7401 34.6928ZM-28.0787 8.05486L-29.5772 7.98908V7.98908L-28.0787 8.05486ZM-22.3246 2.52399L-22.9058 3.90685V3.90685L-22.3246 2.52399ZM-15.2597 10.8472L-16.5861 11.5477L-16.5859 11.548L-15.2597 10.8472ZM-15.0933 11.1621L-16.4195 11.8629L-16.4192 11.8635L-15.0933 11.1621ZM-10.7934 22.9402L-9.35109 22.5281L-9.35371 22.5191L-10.7934 22.9402ZM-10.7934 22.9402L-12.2357 23.3523L-12.2331 23.3613L-10.7934 22.9402ZM-7.02588 33.6978L-8.38034 34.3423L-6.52369 38.2439L-5.5634 34.0311L-7.02588 33.6978ZM8.54694 1.80647C-3.08764 7.85959 -5.37633 18.903 -7.62746 29.4259L-4.69383 30.0535C-2.39947 19.3285 -0.283474 9.7824 9.93156 4.46782L8.54694 1.80647ZM18.3943 5.16668C18.2285 3.8558 17.7684 2.75705 16.9872 1.94046C16.2028 1.12064 15.2133 0.709244 14.216 0.564151C12.2977 0.285078 10.1819 0.955852 8.54694 1.80647L9.93156 4.46782C11.3121 3.74959 12.7584 3.38368 13.7841 3.5329C14.2587 3.60195 14.5866 3.77094 14.8195 4.01437C15.0555 4.26101 15.3124 4.70834 15.418 5.543L18.3943 5.16668ZM14.5003 16.4334C15.4346 14.9476 16.5361 13.2016 17.3313 11.342C18.1302 9.47394 18.6734 7.37464 18.3943 5.16668L15.418 5.54299C15.6056 7.02722 15.2561 8.56502 14.573 10.1624C13.8862 11.7684 12.9165 13.3164 11.9606 14.8365L14.5003 16.4334ZM14.311 16.7345L14.5005 16.4331L11.9604 14.8368L11.771 15.1382L14.311 16.7345ZM6.07526 26.5856C8.99891 23.5259 12.0423 20.3487 14.3114 16.7339L11.7706 15.1389C9.69171 18.4506 6.872 21.4093 3.90627 24.513L6.07526 26.5856ZM-1.07766 34.856C0.949707 31.954 3.46874 29.3134 6.07526 26.5856L3.90627 24.513C1.3294 27.2098 -1.35531 30.0151 -3.53696 33.1379L-1.07766 34.856ZM-0.0656662 31.7019C-0.96497 31.9928 -1.86123 32.2827 -2.75956 32.5668L-1.85505 35.4272C-0.945747 35.1397 -0.0401115 34.8467 0.857643 34.5563L-0.0656662 31.7019ZM31.9406 31.8997C20.8812 24.8504 10.1729 28.39 -0.0656662 31.7019L0.857643 34.5563C11.2929 31.1808 20.6181 28.2403 30.3282 34.4295L31.9406 31.8997ZM33.9543 42.1078C35.0067 41.3088 35.7282 40.361 36.0447 39.2761C36.3625 38.1869 36.2241 37.1243 35.851 36.188C35.1336 34.3872 33.4948 32.8903 31.9406 31.8997L30.3282 34.4295C31.6404 35.2659 32.6805 36.3355 33.0641 37.2984C33.2416 37.7439 33.2592 38.1124 33.1648 38.4358C33.0692 38.7635 32.8103 39.2097 32.1402 39.7184L33.9543 42.1078ZM22.25 44.3689C24.0039 44.4351 26.0667 44.516 28.0748 44.2749C30.0921 44.0327 32.1817 43.4535 33.9543 42.1078L32.1402 39.7184C30.9487 40.623 29.4421 41.0892 27.7172 41.2963C25.983 41.5045 24.1575 41.4387 22.3632 41.371L22.25 44.3689ZM21.8954 44.3556C22.0125 44.3599 22.1305 44.3644 22.25 44.3689L22.3632 41.371C22.2439 41.3665 22.1247 41.362 22.0062 41.3576L21.8954 44.3556ZM9.24545 42.1487C13.3571 43.1508 17.6303 44.1978 21.8954 44.3556L22.0062 41.3576C18.0988 41.2131 14.1266 40.2505 9.95583 39.234L9.24545 42.1487ZM-3.84276 39.9753C0.436375 40.0088 4.7494 41.0529 9.24545 42.1487L9.95583 39.234C5.52529 38.1542 0.868832 37.0121 -3.81926 36.9754L-3.84276 39.9753ZM1.46645 41.3095C0.0257492 40.0089 -1.40488 38.7172 -2.79543 37.3902L-4.86659 39.5605C-3.44101 40.921 -1.97945 42.2403 -0.543861 43.5363L1.46645 41.3095ZM1.4617 41.3053L1.46149 41.3051L-0.538895 43.5408L-0.538677 43.541L1.4617 41.3053ZM17.2986 69.1269C17.8737 56.0245 9.45415 48.5207 1.46667 41.3097L-0.543644 43.5365C7.59726 50.886 14.8064 57.4915 14.3015 68.9953L17.2986 69.1269ZM9.4649 75.9748C10.683 76.4867 11.8646 76.6376 12.9624 76.3694C14.0646 76.1 14.9156 75.4487 15.54 74.6576C16.7408 73.1358 17.2178 70.9681 17.2986 69.1269L14.3015 68.9953C14.2332 70.55 13.827 71.9855 13.1849 72.7992C12.8878 73.1757 12.5775 73.3751 12.2502 73.4551C11.9186 73.5362 11.4027 73.535 10.6272 73.2091L9.4649 75.9748ZM1.65464 66.9692C2.47424 68.5212 3.43552 70.3481 4.64835 71.9666C5.86673 73.5925 7.41317 75.1126 9.4649 75.9748L10.6272 73.2091C9.24794 72.6295 8.09094 71.5579 7.04909 70.1676C6.0017 68.7699 5.14595 67.156 4.30745 65.5682L1.65464 66.9692ZM1.48846 66.6547L1.65481 66.9695L4.30727 65.5679L4.14092 65.2531L1.48846 66.6547ZM-2.92492 54.5968C-1.73696 58.6586 -0.507095 62.8829 1.48882 66.6554L4.14056 65.2524C2.31199 61.7962 1.15952 57.8749 -0.0455399 53.7546L-2.92492 54.5968ZM-2.90826 54.65L-2.90825 54.65L-0.0622063 53.7014L-0.0622177 53.7013L-2.90826 54.65ZM-6.89968 43.4641C-5.18689 46.8778 -4.07449 50.6662 -2.92493 54.5967L-0.0455513 53.7546C-1.18066 49.8735 -2.36264 45.8171 -4.21827 42.1187L-6.89968 43.4641ZM-4.84781 46.579C-4.60027 45.4219 -4.35376 44.2697 -4.09547 43.1203L-7.02248 42.4626C-7.28472 43.6295 -7.53443 44.7968 -7.78143 45.9515L-4.84781 46.579ZM-21.0222 74.1985C-9.38762 68.1453 -7.09894 57.1019 -4.84781 46.579L-7.78143 45.9515C-10.0758 56.6764 -12.1918 66.2225 -22.4068 71.5371L-21.0222 74.1985ZM-30.8695 70.8382C-30.7038 72.1491 -30.2437 73.2479 -29.4625 74.0645C-28.6781 74.8843 -27.6886 75.2957 -26.6912 75.4408C-24.773 75.7198 -22.6572 75.0491 -21.0222 74.1985L-22.4068 71.5371C-23.7873 72.2553 -25.2337 72.6212 -26.2593 72.472C-26.734 72.403 -27.0619 72.234 -27.2948 71.9906C-27.5307 71.7439 -27.7877 71.2966 -27.8932 70.4619L-30.8695 70.8382ZM-26.9756 59.5715C-27.9098 61.0574 -29.0114 62.8033 -29.8066 64.6629C-30.6055 66.531 -31.1487 68.6303 -30.8695 70.8382L-27.8932 70.4619C-28.0809 68.9777 -27.7314 67.4399 -27.0482 65.8425C-26.3615 64.2366 -25.3917 62.6885 -24.4359 61.1685L-26.9756 59.5715ZM-26.7863 59.2704L-26.9758 59.5719L-24.4357 61.1682L-24.2463 60.8667L-26.7863 59.2704ZM-18.5505 49.4193C-21.4742 52.479 -24.5176 55.6563 -26.7867 59.271L-24.2458 60.866C-22.167 57.5543 -19.3473 54.5956 -16.3815 51.4919L-18.5505 49.4193ZM-18.6183 49.4953L-18.6184 49.4953L-16.3137 51.4159L-16.3137 51.4158L-18.6183 49.4953ZM-10.7286 40.1525C-12.8484 43.445 -15.6441 46.3776 -18.5505 49.4193L-16.3815 51.4918C-13.5128 48.4896 -10.5081 45.352 -8.20617 41.7765L-10.7286 40.1525ZM-12.2129 43.4182C-11.1464 43.0732 -10.0842 42.7296 -9.01895 42.3959L-9.91582 39.5331C-10.9965 39.8716 -12.0719 40.2195 -13.1362 40.5638L-12.2129 43.4182ZM-44.2192 43.2204C-33.1598 50.2697 -22.4515 46.73 -12.2129 43.4182L-13.1362 40.5638C-23.5715 43.9393 -32.8967 46.8798 -42.6067 40.6906L-44.2192 43.2204ZM-46.2329 33.0123C-47.2852 33.8113 -48.0067 34.7591 -48.3233 35.844C-48.6411 36.9331 -48.5026 37.9958 -48.1296 38.9321C-47.4122 40.7329 -45.7734 42.2298 -44.2192 43.2204L-42.6067 40.6906C-43.919 39.8542 -44.959 38.7846 -45.3427 37.8217C-45.5202 37.3761 -45.5378 37.0077 -45.4434 36.6843C-45.3478 36.3566 -45.0889 35.9104 -44.4188 35.4017L-46.2329 33.0123ZM-34.5286 30.7512C-36.2825 30.685 -38.3453 30.6041 -40.3534 30.8451C-42.3706 31.0873 -44.4603 31.6665 -46.2329 33.0123L-44.4188 35.4017C-43.2273 34.497 -41.7207 34.0309 -39.9958 33.8238C-38.2616 33.6155 -36.4361 33.6814 -34.6418 33.7491L-34.5286 30.7512ZM-34.1732 30.7645L-34.529 30.7512L-34.6414 33.7491L-34.2856 33.7624L-34.1732 30.7645ZM-21.524 32.9714C-25.6356 31.9693 -29.9089 30.9223 -34.1739 30.7645L-34.2848 33.7625C-30.3774 33.907 -26.4052 34.8696 -22.2344 35.8861L-21.524 32.9714ZM-10.5792 35.048C-14.1723 34.7598 -17.7861 33.8824 -21.524 32.9714L-22.2344 35.8861C-18.54 36.7865 -14.6916 37.7278 -10.8189 38.0384L-10.5792 35.048ZM-13.7431 35.8082C-13.063 36.4222 -12.3852 37.0341 -11.7111 37.6503L-9.68701 35.436C-10.3692 34.8125 -11.0539 34.1943 -11.7327 33.5814L-13.7431 35.8082ZM-13.744 35.8074L-13.7433 35.808L-11.7325 33.5817L-11.7332 33.581L-13.744 35.8074ZM-13.7448 35.8067L-13.744 35.8074L-11.7332 33.581L-11.7339 33.5804L-13.7448 35.8067ZM-13.7455 35.8061L-13.7448 35.8067L-11.7339 33.5804L-11.7346 33.5798L-13.7455 35.8061ZM-13.7367 35.8139L-13.7366 35.814L-11.7435 33.5718L-11.7436 33.5717L-13.7367 35.8139ZM-29.5772 7.98908C-30.1523 21.0915 -21.7328 28.5953 -13.7453 35.8062L-11.735 33.5794C-19.8759 26.23 -27.0851 19.6244 -26.5801 8.12064L-29.5772 7.98908ZM-21.7435 1.14114C-22.9616 0.629236 -24.1432 0.478305 -25.2411 0.746604C-26.3432 1.01596 -27.1943 1.66723 -27.8186 2.45839C-29.0194 3.9801 -29.4964 6.14786 -29.5772 7.98908L-26.5801 8.12064C-26.5119 6.56597 -26.1056 5.13046 -25.4635 4.3168C-25.1664 3.94027 -24.8561 3.74082 -24.5288 3.66084C-24.1973 3.5798 -23.6814 3.58091 -22.9058 3.90685L-21.7435 1.14114ZM-13.9333 10.1468C-14.7529 8.59475 -15.7141 6.76785 -16.927 5.14935C-18.1454 3.52345 -19.6918 2.00335 -21.7435 1.14114L-22.9058 3.90685C-21.5266 4.48644 -20.3696 5.55805 -19.3277 6.94837C-18.2803 8.34609 -17.4246 9.9599 -16.5861 11.5477L-13.9333 10.1468ZM-13.7671 10.4613L-13.9334 10.1464L-16.5859 11.548L-16.4195 11.8629L-13.7671 10.4613ZM-9.35371 22.5191C-10.5417 18.4574 -11.7715 14.2331 -13.7674 10.4606L-16.4192 11.8635C-14.5906 15.3197 -13.4381 19.241 -12.2331 23.3613L-9.35371 22.5191ZM-9.3511 22.5282L-9.35111 22.5281L-12.2357 23.3523L-12.2357 23.3523L-9.3511 22.5282ZM-5.67142 33.0532C-7.22293 29.7929 -8.27177 26.2185 -9.3537 22.5192L-12.2331 23.3613C-11.1638 27.0174 -10.0528 30.8279 -8.38034 34.3423L-5.67142 33.0532ZM-7.62746 29.4259C-7.90955 30.7445 -8.1903 32.0568 -8.48837 33.3644L-5.5634 34.0311C-5.26014 32.7007 -4.97523 31.3689 -4.69383 30.0535L-7.62746 29.4259Z" fill="#F0B2FF"/>
</svg>
